# xmcd
#
# Track frame offsets:
#	150
#	18532
#	42411
#	68189
#	81113
#	103626
#	130699
#	156427
#
# Disc length: 2381 seconds
#
# Revision: 1
# Processed by: cddbd v1.5.1PL2 Copyright (c) Steve Scherf et al.
# Submitted via: audiograbber 1.83.01
#
DISCID=65094b08
DTITLE=Diego Garcia - Cuaderno de viajes Vol.1
DYEAR=2005
DGENRE=New Age
TTITLE0=Opening
TTITLE1=Pat
TTITLE2=Boogie man
TTITLE3=Godzilla
TTITLE4=FK twang
TTITLE5=D minor
TTITLE6=Jungle blues
TTITLE7=Blues for Danny
EXTD=
EXTT0=
EXTT1=
EXTT2=
EXTT3=
EXTT4=
EXTT5=
EXTT6=
EXTT7=
PLAYORDER=
